<svg width="21" height="21" viewBox="0 0 21 21" fill="none" xmlns="http://www.w3.org/2000/svg">
<path d="M21 19C21 20.1046 20.1046 21 19 21H2C0.89543 21 0 20.1046 0 19V18C0 16.8954 0.895431 16 2 16H19C20.1046 16 21 16.8954 21 18V19ZM21 11C21 12.1046 20.1046 13 19 13H2C0.89543 13 0 12.1046 0 11V10C0 8.89543 0.895431 8 2 8H19C20.1046 8 21 8.89543 21 10V11ZM21 3C21 4.10457 20.1046 5 19 5H2C0.89543 5 0 4.10457 0 3V2C0 0.89543 0.895431 0 2 0H19C20.1046 0 21 0.895431 21 2V3ZM3.9 2C3.9 1.44772 3.45228 1 2.9 1H1.9C1.34771 1 0.9 1.44772 0.9 2V3C0.9 3.55228 1.34771 4 1.9 4H2.9C3.45228 4 3.9 3.55228 3.9 3V2ZM3.9 10C3.9 9.44772 3.45228 9 2.9 9H1.9C1.34771 9 0.9 9.44772 0.9 10V11C0.9 11.5523 1.34771 12 1.9 12H2.9C3.45228 12 3.9 11.5523 3.9 11V10ZM3.9 18C3.9 17.4477 3.45228 17 2.9 17H1.9C1.34771 17 0.9 17.4477 0.9 18V19C0.9 19.5523 1.34771 20 1.9 20H2.9C3.45228 20 3.9 19.5523 3.9 19V18Z" fill="white"/>
</svg>
