<svg width="58" height="38" viewBox="0 0 58 38" fill="none" xmlns="http://www.w3.org/2000/svg">
<path d="M19.2 36.8L3.19999 25.5C1.39999 24.2 0.299988 22.2 0.299988 19.5V18.8C0.299988 16 1.39999 14.1 3.19999 12.8L19.2 1.49998C19.8 1.09998 20.3 0.799979 21 0.799979C22.5 0.699979 23.9 2.69998 23.9 5.29998C23.9 7.39998 23.1 8.79998 21.9 9.59998L7.49999 19.1L21.9 28.6C23.1 29.4 23.9 31.1 23.9 33.1C23.9 35.7 22.5 37.6 20.8 37.5C20.2 37.5 19.7 37.2 19.2 36.8Z" fill="white"/>
<path d="M38.7 1.70377L54.7 13.0038C56.5 14.3038 57.6 16.3038 57.6 19.0038V19.7038C57.6 22.5038 56.5 24.4038 54.7 25.7038L38.7 37.0038C38.1 37.4038 37.6 37.7038 36.9 37.7038C35.4 37.8038 34 35.8038 34 33.2038C34 31.1038 34.8 29.7038 36 28.9038L50.4 19.4038L36 9.90377C34.8 9.10377 34 7.40377 34 5.40377C34 2.80377 35.4 0.903771 37.1 1.00377C37.7 1.10377 38.2 1.30377 38.7 1.70377Z" fill="white"/>
</svg>
